<?xml version="1.0" standalone="no"?>
<!DOCTYPE svg PUBLIC "-//W3C//DTD SVG 20010904//EN"
 "http://www.w3.org/TR/2001/REC-SVG-20010904/DTD/svg10.dtd">
<svg version="1.0" xmlns="http://www.w3.org/2000/svg"
 width="1164.000000pt" height="1280.000000pt" viewBox="0 0 1164.000000 1280.000000"
 preserveAspectRatio="xMidYMid meet">

<g transform="translate(0.000000,1280.000000) scale(0.100000,-0.100000)"
fill="#000000" stroke="none">
<path d="M1 10403 c2 -2212 6 -2559 23 -1888 6 233 9 311 21 490 4 64 7 171
20 645 4 186 22 502 30 540 3 14 10 95 15 180 14 238 19 274 35 286 19 14 19
28 0 20 -8 -3 -15 -1 -15 4 0 6 8 10 18 10 16 0 19 8 18 58 -1 31 2 68 6 82
l7 25 6 -22 c10 -33 22 -28 33 15 5 20 10 29 11 20 1 -10 11 -18 29 -20 22 -2
27 -8 26 -30 -1 -16 3 -28 7 -28 5 0 9 -6 9 -14 0 -10 23 -16 83 -22 45 -5 90
-8 100 -6 24 3 21 -13 -5 -26 l-23 -11 23 0 c17 -1 22 -7 23 -28 0 -24 2 -25
8 -9 5 14 10 16 15 8 4 -7 19 -10 37 -7 33 6 37 -1 11 -22 -15 -13 -7 -14 66
-10 74 5 82 3 82 -13 0 -21 49 -29 179 -31 47 -1 78 -3 69 -6 -10 -2 -18 -8
-18 -13 0 -15 71 -41 103 -37 30 4 29 4 -7 5 -22 1 -37 5 -33 8 11 11 77 22
83 13 3 -5 39 -9 81 -9 l76 0 -6 -35 c-4 -21 -2 -35 5 -35 5 0 8 -7 4 -15 -3
-8 -1 -15 4 -15 6 0 10 11 10 25 0 14 6 25 13 25 8 0 8 3 -2 9 -12 8 -12 12 2
26 10 9 17 21 17 26 0 5 7 9 15 9 8 0 15 -4 15 -10 0 -5 10 -10 23 -10 20 0
23 -4 19 -30 -3 -24 0 -31 19 -39 15 -5 29 -5 37 2 7 5 15 7 19 3 3 -3 1 -6
-5 -6 -7 0 -12 -5 -12 -11 0 -6 7 -9 15 -5 10 3 15 -1 15 -13 0 -11 4 -21 10
-23 5 -2 12 -24 14 -50 3 -26 7 -51 9 -55 3 -5 8 -57 11 -118 4 -60 9 -135 11
-165 3 -30 7 -140 11 -245 3 -104 8 -193 10 -196 6 -11 23 -397 34 -789 5
-201 12 -417 15 -480 7 -171 14 -459 20 -790 3 -162 8 -349 10 -415 3 -66 10
-316 15 -555 15 -642 29 -747 99 -756 40 -5 81 -17 81 -24 0 -5 16 -4 36 2 20
5 43 6 52 3 10 -4 67 -6 128 -6 63 1 124 -3 140 -10 34 -13 72 -17 218 -22 77
-3 111 -8 117 -18 6 -10 9 -11 9 -1 0 6 10 12 23 12 18 0 19 -2 7 -11 -12 -9
-11 -9 5 -4 43 15 55 17 72 10 10 -5 22 -7 27 -6 5 1 12 -3 16 -8 4 -7 17 -8
40 -1 19 6 46 10 60 9 22 0 23 -1 6 -8 -14 -5 -16 -10 -7 -15 6 -4 18 -2 27 4
16 14 93 7 103 -9 8 -13 195 -31 199 -19 6 15 20 8 25 -12 4 -15 14 -20 37
-20 17 0 29 -4 25 -9 -3 -5 -1 -12 5 -16 5 -3 10 -1 10 5 0 6 5 8 10 5 14 -9
5 -21 -28 -38 -68 -34 -356 -189 -380 -204 -15 -9 -50 -31 -79 -50 -75 -48
-133 -75 -273 -128 -155 -59 -576 -254 -636 -296 -163 -112 -250 -370 -269
-804 -9 -206 -11 -227 -45 -415 -59 -333 -75 -599 -64 -1080 10 -426 8 -574
-8 -710 -7 -52 -13 -151 -14 -220 -1 -69 -7 -143 -13 -165 -6 -22 -11 -66 -11
-97 0 -36 -11 -92 -30 -150 -17 -51 -30 -108 -30 -128 0 -20 -10 -78 -22 -130
-16 -72 -21 -125 -21 -215 1 -88 -3 -129 -14 -155 -10 -22 -18 -84 -23 -165
-5 -97 -13 -145 -29 -190 -60 -159 -74 -204 -79 -258 l-5 -57 1943 0 1943 0
-6 35 c-7 44 11 82 45 94 32 11 38 6 38 -33 l0 -30 18 24 c9 14 22 41 28 60
10 28 12 30 13 12 1 -30 22 -24 39 11 9 20 21 27 40 27 26 -1 26 -1 7 -16 -17
-12 -18 -16 -5 -24 16 -10 41 5 39 24 -3 26 3 35 31 44 21 8 28 16 24 26 -4
11 0 16 13 16 23 0 57 34 82 81 18 33 22 35 110 48 106 17 158 8 225 -36 37
-24 41 -25 113 -14 128 19 132 17 83 -51 -17 -22 -30 -47 -30 -54 0 -7 -12
-26 -27 -42 -51 -52 -113 -130 -113 -141 0 -6 12 -11 27 -11 20 0 41 15 82 60
63 67 99 85 188 95 54 7 68 4 120 -19 55 -26 123 -80 123 -98 0 -5 -29 7 -63
27 -35 19 -67 35 -70 35 -4 0 -7 -18 -7 -40 0 -39 1 -40 34 -40 45 0 53 -15
17 -30 -16 -6 -32 -18 -35 -26 -8 -21 296 -21 314 1 7 8 18 15 25 15 6 0 20 9
29 19 20 22 -4 23 311 -9 110 -11 222 -25 248 -30 31 -6 871 -10 2283 -10
l2234 0 0 6400 0 6400 -5820 0 -5820 0 1 -2397z m4873 -560 c6 -4 23 -6 37 -5
14 2 31 -4 39 -12 7 -9 22 -16 34 -16 12 0 38 -9 59 -19 44 -22 47 -17 10 21
-32 33 -15 37 27 6 20 -14 30 -31 30 -47 0 -18 3 -22 9 -13 6 9 18 1 47 -32
25 -29 47 -46 62 -46 29 0 28 14 -4 39 l-27 21 34 -6 c63 -12 124 -54 79 -54
-12 0 -18 -4 -15 -10 3 -5 15 -10 25 -10 26 0 50 -37 44 -69 -6 -30 58 -159
84 -169 9 -3 40 -28 68 -55 47 -44 78 -102 88 -162 1 -5 5 -16 10 -23 4 -7 10
-59 13 -114 2 -55 9 -111 13 -124 11 -29 31 -177 35 -259 1 -33 14 -116 29
-185 19 -90 25 -139 20 -174 -5 -37 -3 -47 6 -41 10 6 11 0 5 -26 -4 -19 -9
-65 -11 -104 -3 -38 -5 -74 -6 -80 -1 -5 2 -20 6 -32 9 -27 -1 -30 -21 -5 -13
15 -14 10 -9 -42 4 -54 -6 -68 -17 -21 -2 11 -7 -3 -12 -32 -6 -42 -11 -53
-26 -53 -11 0 -19 -7 -19 -15 0 -8 5 -15 10 -15 6 0 10 -9 10 -19 0 -11 -4
-23 -10 -26 -5 -3 -10 3 -10 14 0 11 -4 22 -9 25 -14 9 -21 -20 -8 -33 9 -9 8
-14 -3 -21 -12 -7 -11 -13 10 -35 18 -19 21 -28 12 -37 -7 -7 -12 -20 -12 -30
0 -31 -38 -22 -43 10 -4 26 -4 26 -6 -4 0 -20 5 -34 14 -38 11 -4 15 -21 15
-61 0 -59 -14 -74 -25 -25 -10 45 -22 45 -29 -1 -6 -40 -26 -46 -26 -8 0 10
-5 19 -11 19 -7 0 -10 -15 -7 -39 2 -28 0 -37 -9 -34 -7 3 -13 -2 -13 -11 0
-9 -4 -16 -10 -16 -5 0 -10 -9 -10 -21 0 -30 -16 -15 -24 22 -5 27 -8 30 -21
19 -10 -9 -15 -9 -15 -1 0 6 -3 11 -8 11 -4 0 -6 -18 -4 -39 4 -37 3 -39 -20
-34 -12 3 -28 10 -34 14 -14 11 -24 1 -24 -24 0 -12 -5 -17 -14 -14 -14 5 -24
-24 -29 -80 -2 -28 -17 -31 -17 -4 0 16 -7 20 -40 19 -32 0 -40 -4 -40 -19 0
-10 -9 -24 -20 -31 -23 -14 -27 -30 -6 -22 15 6 31 -39 21 -56 -10 -16 -25
-11 -26 8 0 16 -1 16 -8 -1 -6 -18 -7 -18 -23 0 -23 27 -27 47 -9 59 12 9 13
17 4 36 -6 14 -8 42 -3 71 4 27 3 67 -2 90 -5 23 -10 49 -12 57 -10 57 -19 89
-33 119 -8 19 -18 51 -20 71 -3 23 -18 51 -39 74 -18 20 -36 52 -40 72 -6 33
-56 104 -73 104 -3 0 -13 -4 -20 -9 -21 -13 -15 -90 8 -116 10 -11 23 -36 30
-55 12 -36 69 -127 105 -168 16 -18 17 -25 7 -35 -10 -9 -15 -8 -25 6 -7 9
-18 17 -25 17 -6 0 -16 9 -23 20 -7 11 -23 20 -35 20 -12 0 -34 6 -50 14 -79
40 -124 57 -133 51 -5 -3 -18 3 -30 15 -11 11 -27 20 -35 20 -9 0 -21 5 -28
10 -7 6 -24 20 -40 31 -15 11 -25 24 -22 29 3 5 27 16 53 25 48 16 102 56 102
75 0 16 -11 12 -37 -12 -20 -19 -27 -20 -43 -10 -11 6 -25 9 -33 6 -7 -2 -19
6 -27 21 -11 21 -23 30 -32 23 -2 -1 -14 5 -28 12 -14 8 -32 15 -40 17 -26 5
-98 -19 -116 -38 -22 -24 -30 -24 -77 1 -20 11 -37 16 -37 12 0 -11 -38 -8
-87 7 -24 8 -56 11 -76 7 -29 -5 -37 -12 -42 -36 -3 -16 -12 -33 -19 -39 -18
-15 -40 32 -27 57 15 27 25 56 25 72 1 10 14 16 39 18 20 2 37 7 37 12 0 10
69 19 72 9 2 -3 13 -10 26 -13 21 -7 22 -5 24 76 1 46 2 119 2 163 1 61 6 88
19 109 10 15 16 34 13 41 -3 8 1 38 9 67 7 29 11 56 9 60 -9 15 18 133 34 152
12 13 17 37 17 85 0 64 1 66 27 69 14 2 32 10 39 18 10 12 13 12 24 -3 9 -13
28 -18 64 -19 28 0 51 2 51 6 0 12 63 21 72 12 5 -5 -5 -36 -22 -71 -22 -43
-30 -70 -26 -87 4 -14 10 -23 14 -20 4 3 13 1 20 -3 9 -5 8 -19 -4 -60 -15
-53 -9 -81 20 -81 6 0 30 -22 53 -49 50 -57 183 -131 238 -131 19 0 35 -4 35
-10 0 -5 7 -10 15 -10 8 0 15 6 15 13 0 9 3 8 9 -2 7 -11 13 -8 26 13 19 28
55 36 55 11 0 -23 18 -18 36 10 9 14 25 25 36 25 11 0 34 6 51 14 18 8 39 17
47 19 12 4 11 6 -2 6 -22 1 -23 17 -2 25 9 4 14 13 10 21 -4 12 3 15 32 15 28
0 33 3 22 10 -13 9 -13 12 4 25 12 9 17 22 14 39 -4 19 0 26 18 30 19 5 21 10
15 34 -4 15 -6 32 -4 38 10 30 -159 108 -274 127 -66 10 -72 13 -67 32 12 42
27 75 35 75 4 0 17 10 28 21 16 18 32 22 83 22 35 1 48 2 31 4 -18 3 -33 9
-33 15 0 18 185 5 207 -14 10 -9 31 -20 47 -24 27 -7 29 -6 22 20 -5 20 -3 26
10 26 11 0 5 10 -18 33 -18 18 -55 56 -81 86 -27 29 -67 61 -90 72 -23 11 -62
31 -87 44 -28 16 -52 22 -65 18 -11 -3 -32 -6 -47 -5 -19 2 -28 -3 -28 -13 0
-16 -16 -20 -24 -6 -3 5 -36 6 -73 3 -38 -4 -112 -6 -165 -5 -54 0 -98 -2 -98
-6 0 -3 -4 -12 -9 -19 -7 -12 -12 -12 -30 0 -14 8 -24 9 -29 3 -4 -5 -23 -11
-42 -12 -19 -1 -36 -6 -38 -12 -2 -6 -12 -11 -21 -11 -10 0 -23 -11 -29 -24
-6 -13 -23 -30 -38 -38 -15 -7 -35 -28 -43 -45 -9 -18 -23 -33 -32 -33 -8 0
-20 -5 -26 -11 -30 -30 -73 236 -63 395 0 16 17 49 36 74 19 25 34 56 34 69 0
16 8 27 25 33 14 5 24 15 23 22 -2 8 5 12 17 10 64 -10 131 -4 149 13 8 8 22
15 30 15 9 0 16 7 16 16 0 9 6 14 13 11 6 -2 11 -11 9 -20 -3 -18 14 -31 29
-21 8 4 8 9 0 17 -18 18 -13 37 10 37 16 0 20 -5 16 -20 -4 -15 0 -20 14 -20
22 0 48 52 30 58 -19 6 -12 22 10 22 12 0 30 9 39 20 11 13 21 17 25 10 9 -15
25 -12 25 4 0 8 6 17 13 20 8 3 7 8 -6 16 -29 18 -9 33 36 26 22 -4 45 -10 51
-13z m369 -71 c19 -16 23 -32 8 -32 -5 0 -20 14 -32 32 -22 31 -12 31 24 0z
m-1049 -374 c8 -42 9 -248 2 -256 -3 -3 -6 5 -6 17 0 33 -40 87 -51 69 -13
-20 -11 -28 9 -28 14 0 14 -2 3 -9 -20 -13 -48 7 -62 44 -7 16 -19 35 -26 42
-22 17 -7 68 25 89 18 12 27 13 30 6 2 -7 15 -12 28 -12 21 0 24 4 24 41 0 46
15 45 24 -3z m1734 -306 c3 -9 -2 -13 -14 -10 -9 1 -19 9 -22 16 -3 9 2 13 14
10 9 -1 19 -9 22 -16z m-821 -38 c-3 -3 -12 -4 -19 -1 -8 3 -5 6 6 6 11 1 17
-2 13 -5z m83 -4 c0 -5 -7 -10 -15 -10 -8 0 -15 5 -15 10 0 6 7 10 15 10 8 0
15 -4 15 -10z m701 -33 c-8 -8 -11 -7 -11 4 0 9 3 19 7 23 4 4 9 2 11 -4 3 -7
-1 -17 -7 -23z m-2701 -168 c0 -10 -4 -19 -10 -19 -5 0 -10 12 -10 26 0 14 4
23 10 19 6 -3 10 -15 10 -26z m1770 27 c0 -2 -7 -6 -15 -10 -8 -3 -15 -1 -15
4 0 6 7 10 15 10 8 0 15 -2 15 -4z m188 -83 c39 -19 42 -40 5 -45 -29 -4 -121
13 -141 26 -17 10 -5 26 19 26 13 0 18 4 13 11 -9 15 58 3 104 -18z m-1789
-76 c16 -16 14 -44 -4 -51 -9 -3 -14 -17 -13 -38 2 -36 -5 -106 -27 -268 -18
-130 -26 -318 -14 -326 5 -3 9 -14 9 -25 0 -11 -4 -17 -10 -14 -5 3 -10 -1
-10 -9 0 -9 -5 -16 -10 -16 -13 0 -5 262 9 355 12 73 31 293 31 355 0 25 3 63
7 85 l7 40 7 -38 c3 -21 11 -43 18 -50z m1731 -51 c-14 -14 -24 0 -16 21 6 15
8 15 16 3 6 -9 5 -19 0 -24z m880 -6 c0 -14 9 -21 35 -26 67 -12 137 -127 176
-291 l23 -93 -22 -202 c-13 -112 -28 -231 -35 -265 -14 -63 -59 -142 -87 -150
-32 -9 -45 -21 -50 -43 -6 -27 -30 -39 -30 -15 0 15 -2 15 -22 1 -49 -34 -153
-7 -164 43 -4 14 -10 31 -14 36 -4 6 -6 19 -4 30 3 11 9 128 16 260 10 208 9
257 -5 371 -17 139 -15 165 15 203 18 23 18 23 18 2 0 -31 13 -26 46 19 16 22
34 40 39 40 6 0 22 10 38 23 26 21 26 23 13 50 -13 23 -13 27 0 27 8 0 14 -9
14 -20z m-54 -20 c23 0 16 -19 -11 -32 -19 -8 -29 -8 -37 0 -15 15 -2 45 18
38 9 -3 22 -6 30 -6z m-696 -30 c0 -5 -4 -10 -10 -10 -5 0 -10 5 -10 10 0 6 5
10 10 10 6 0 10 -4 10 -10z m-30 -5 c0 -10 -91 -45 -113 -44 -15 0 -10 5 18
15 22 8 44 19 49 24 10 10 46 14 46 5z m-1519 -51 c12 -14 11 -16 -5 -13 -11
2 -21 10 -24 17 -5 17 13 15 29 -4z m1529 -13 c0 -14 -28 -21 -109 -26 l-76
-4 85 18 c105 23 100 23 100 12z m-1930 -150 c0 -6 -5 -13 -11 -17 -7 -4 -9
-21 -6 -41 5 -30 4 -33 -9 -22 -13 10 -20 10 -36 0 -20 -12 -21 -11 -15 24 3
20 11 43 18 51 13 16 59 19 59 5z m-88 -207 c-1 -16 -6 -54 -10 -84 -4 -30 -4
-77 -1 -105 4 -27 8 -91 8 -142 1 -110 18 -205 33 -180 12 22 31 21 52 -2 16
-18 16 -22 2 -50 -19 -36 -20 -41 -3 -41 26 -1 54 -38 75 -103 26 -80 26 -77
7 -77 -8 0 -24 -5 -35 -12 -16 -11 -25 -7 -66 28 -53 45 -73 87 -55 115 8 14
7 32 -4 74 -8 31 -14 84 -14 118 0 34 -5 100 -11 147 -20 168 -23 235 -10 293
12 60 37 76 32 21z m812 -148 c-3 -15 -8 -25 -11 -23 -2 3 -1 17 3 31 3 15 8
25 11 23 2 -3 1 -17 -3 -31z m-672 -96 c25 0 23 -14 -4 -32 -20 -14 -21 -18
-10 -40 7 -13 12 -28 11 -34 -4 -24 2 -26 17 -5 9 12 20 19 24 14 11 -10 1
-63 -11 -63 -5 0 -7 -11 -3 -24 3 -14 2 -32 -3 -41 -8 -13 -13 -8 -26 27 -33
92 -51 236 -25 210 7 -7 20 -12 30 -12z m2348 -126 c0 -8 -4 -12 -10 -9 -5 3
-10 10 -10 16 0 5 5 9 10 9 6 0 10 -7 10 -16z m-2242 -29 c-3 -14 -1 -25 3
-25 5 0 9 -7 9 -15 0 -8 9 -20 20 -27 22 -14 27 -43 9 -54 -6 -3 -16 -1 -22 5
-8 8 -8 11 1 11 7 0 12 4 12 9 0 15 -50 -13 -56 -31 -8 -26 -19 -22 -19 7 0
16 5 24 15 22 8 -1 14 4 13 11 -5 23 -5 27 -4 70 0 23 6 42 12 42 7 0 9 -10 7
-25z m2229 -77 c-3 -8 -6 -5 -6 6 -1 11 2 17 5 13 3 -3 4 -12 1 -19z m-1143 3
c3 -4 25 -11 48 -13 24 -3 70 -18 103 -35 33 -16 72 -33 87 -36 25 -7 118
-107 118 -128 0 -17 -26 -9 -73 22 -26 17 -52 27 -58 24 -6 -4 -24 7 -39 24
-24 26 -34 30 -64 26 -20 -2 -36 0 -36 5 0 5 -10 12 -22 16 -13 4 -34 19 -49
35 -14 15 -39 31 -55 34 -55 12 -61 16 -39 25 27 11 73 12 79 1z m-139 -21
c-3 -5 -10 -10 -16 -10 -5 0 -9 5 -9 10 0 6 7 10 16 10 8 0 12 -4 9 -10z
m1177 -185 c3 -14 1 -28 -3 -31 -5 -3 -9 9 -9 25 0 38 6 40 12 6z m-1063 -44
l27 -29 23 24 c30 31 64 31 89 -1 13 -17 23 -22 27 -15 7 12 53 5 69 -10 4 -4
5 -22 1 -39 -6 -30 -8 -31 -63 -32 -49 0 -53 -2 -32 -10 14 -6 48 -11 75 -12
49 -2 53 -5 40 -39 -5 -14 -2 -18 13 -18 12 0 23 4 26 9 3 5 22 12 42 15 19 4
41 9 47 12 7 2 20 -9 30 -26 11 -17 27 -30 38 -30 24 0 35 -28 38 -98 1 -36
-1 -52 -8 -47 -17 10 -13 -24 4 -41 8 -9 15 -22 15 -30 0 -8 -7 -14 -15 -14
-24 0 -18 -28 10 -46 14 -9 25 -20 25 -25 0 -17 -29 -9 -43 11 -12 18 -16 19
-27 5 -10 -12 -9 -16 4 -21 9 -4 21 -16 27 -27 10 -17 9 -19 -5 -14 -8 3 -18
1 -22 -4 -3 -6 -18 -8 -32 -4 -26 6 -26 6 -9 -13 13 -14 15 -28 11 -52 l-7
-33 -17 23 c-16 22 -16 21 -14 -10 2 -26 -1 -30 -14 -25 -45 18 -48 18 -34 4
6 -7 12 -18 12 -24 0 -14 -47 -12 -62 3 -18 18 -25 15 -33 -15 -9 -37 -23 -53
-41 -46 -9 3 -14 -2 -15 -13 -1 -17 -2 -17 -6 -1 -2 9 -11 17 -19 17 -8 0 -14
4 -14 10 0 10 -60 7 -77 -3 -6 -4 -14 0 -17 9 -6 15 -8 15 -25 0 -9 -9 -21
-13 -25 -9 -4 5 -14 -1 -22 -11 -13 -19 -14 -18 -14 11 0 27 -4 31 -32 35 -25
4 -36 0 -51 -18 -10 -14 -29 -24 -43 -24 -19 0 -24 5 -25 28 -3 80 15 132 47
132 12 0 24 6 27 14 3 7 31 22 61 31 31 10 56 22 56 26 0 5 7 9 15 9 19 0 19
7 -2 28 -15 15 -15 17 -1 20 9 2 19 17 22 35 7 36 -11 57 -50 57 -12 0 -29 11
-38 25 -15 22 -22 25 -51 19 -23 -4 -35 -2 -35 5 0 6 6 11 13 12 6 1 22 2 35
2 16 2 28 12 37 34 13 30 12 34 -6 43 -26 14 -24 26 10 62 21 23 40 31 75 35
25 3 46 9 46 13 0 11 -70 18 -76 8 -3 -4 -36 -8 -75 -8 l-69 0 0 43 c0 45 12
67 45 85 33 18 55 14 84 -17z m1021 -28 c0 -45 -12 -36 -17 13 -2 23 0 33 7
29 5 -3 10 -22 10 -42z m-1186 15 c9 -12 16 -39 16 -60 0 -37 -1 -38 -35 -38
-54 0 -82 18 -90 57 -8 45 8 63 56 63 28 0 42 -6 53 -22z m1123 -75 c-3 -10
-5 -4 -5 12 0 17 2 24 5 18 2 -7 2 -21 0 -30z m-360 -190 c-1 -43 -18 -66 -45
-61 -18 3 -31 48 -13 48 6 0 11 5 11 10 0 15 23 39 37 40 6 0 11 -15 10 -37z
m180 -5 c-3 -8 -6 -5 -6 6 -1 11 2 17 5 13 3 -3 4 -12 1 -19z m-162 -68 c3 -5
1 -10 -4 -10 -6 0 -11 5 -11 10 0 6 2 10 4 10 3 0 8 -4 11 -10z m575 -263 c7
-29 34 -90 60 -137 100 -177 103 -256 17 -500 -30 -85 -94 -261 -141 -390 -48
-129 -103 -280 -123 -335 -20 -55 -42 -105 -49 -111 -8 -6 -14 -23 -14 -38 l0
-26 -20 20 c-22 22 -40 26 -40 9 0 -5 5 -7 10 -4 6 3 10 1 10 -4 0 -6 -8 -11
-19 -11 -32 0 -43 -25 -38 -87 2 -32 7 -67 10 -78 3 -11 6 -22 6 -24 1 -2 8 2
17 10 18 15 21 30 -43 -221 -96 -378 -114 -442 -173 -628 -33 -106 -81 -261
-105 -345 -126 -432 -220 -741 -269 -888 -57 -174 -108 -361 -175 -654 -23
-99 -71 -272 -106 -385 -35 -113 -73 -241 -84 -285 -11 -44 -50 -177 -86 -295
-74 -240 -141 -479 -209 -740 -25 -96 -56 -206 -69 -244 l-23 -70 -33 60 c-40
74 -59 145 -67 256 -4 60 -9 85 -17 82 -7 -2 -19 19 -30 54 -10 31 -26 80 -37
107 -10 28 -31 91 -45 140 -15 50 -31 104 -36 120 -5 17 -18 60 -28 97 -27 90
-79 215 -136 322 -26 49 -50 96 -55 105 -34 70 -57 110 -76 136 -12 17 -34 53
-48 80 -15 28 -44 77 -65 110 -21 33 -60 102 -87 153 -27 51 -56 104 -64 120
-8 15 -26 65 -41 112 -28 89 -67 196 -92 252 -22 48 -73 204 -92 284 -10 38
-21 74 -25 79 -11 14 -18 125 -8 125 4 0 8 30 8 68 0 72 13 133 33 154 19 20
42 67 66 135 13 33 31 70 42 82 10 11 19 25 19 30 0 5 8 12 18 16 31 10 51 52
67 141 12 69 24 104 57 159 l42 70 6 171 c4 142 8 175 24 198 17 27 21 28 70
22 39 -5 56 -3 64 7 6 7 28 76 48 153 33 120 38 154 38 254 l1 115 -47 97
c-50 104 -99 182 -149 238 -39 43 -76 121 -85 178 -6 38 -2 51 40 122 25 44
46 86 46 94 0 8 14 38 30 66 17 28 30 53 30 56 0 11 119 195 177 273 80 107
263 311 280 311 24 0 13 -21 -43 -77 -31 -32 -60 -68 -65 -80 -4 -12 -14 -20
-21 -18 -7 3 -26 -9 -41 -27 -75 -87 -225 -347 -193 -335 16 6 20 -3 32 -66 3
-20 10 -40 15 -43 6 -3 7 11 3 33 -8 52 9 68 54 51 18 -7 31 -15 30 -18 -19
-41 -110 -151 -133 -162 -16 -7 -32 -21 -33 -31 -3 -17 0 -17 37 5 30 17 43
20 52 11 15 -15 -22 -69 -54 -79 -25 -7 -57 -33 -57 -46 0 -4 14 -8 31 -8 l30
0 -18 -31 c-17 -29 -17 -31 0 -40 10 -6 17 -22 17 -40 0 -36 27 -99 43 -99 6
0 18 6 26 14 9 7 27 16 41 19 21 5 29 0 48 -27 12 -18 22 -45 22 -61 0 -33 46
-99 65 -91 19 7 61 -43 75 -89 7 -22 26 -74 43 -115 27 -65 32 -72 37 -50 5
22 9 17 27 -35 12 -33 34 -91 49 -130 15 -38 27 -83 28 -100 1 -16 4 -32 7
-35 11 -8 39 -111 29 -105 -5 3 -11 1 -15 -5 -3 -5 -1 -10 4 -10 6 0 11 -5 11
-11 0 -12 26 -76 41 -99 56 -89 101 -216 111 -320 2 -20 11 -8 41 54 20 43 70
131 111 195 103 164 176 295 176 319 0 31 11 52 27 52 22 0 136 254 160 357 3
12 -5 42 -17 67 -22 46 -30 152 -13 165 4 3 9 23 10 45 1 21 14 63 29 93 28
57 124 163 149 163 7 0 20 6 28 14 7 8 36 28 64 45 27 17 55 41 62 55 8 13 28
32 46 42 23 12 39 33 54 69 19 45 57 115 144 265 12 19 49 90 83 157 34 67 78
142 97 168 49 63 93 174 112 281 9 49 23 110 31 136 8 26 14 59 14 74 0 35 28
68 46 53 7 -5 18 -33 24 -62z m2090 -5 c70 -70 73 -163 9 -237 -50 -57 -129
-66 -192 -23 -39 28 -57 69 -57 130 0 92 73 167 164 168 31 0 45 -7 76 -38z
m-3480 -52 c0 -5 -2 -10 -4 -10 -3 0 -8 5 -11 10 -3 6 -1 10 4 10 6 0 11 -4
11 -10z m327 -92 c-3 -8 -6 -5 -6 6 -1 11 2 17 5 13 3 -3 4 -12 1 -19z m883
-18 c0 -5 -5 -10 -11 -10 -5 0 -7 5 -4 10 3 6 8 10 11 10 2 0 4 -4 4 -10z
m-30 -40 c0 -5 -5 -10 -11 -10 -5 0 -7 5 -4 10 3 6 8 10 11 10 2 0 4 -4 4 -10z
m-1827 -713 c-2 -4 -11 -3 -18 3 -7 6 -24 8 -38 5 -22 -6 -25 -4 -20 14 6 24
21 37 48 43 15 3 22 -3 27 -27 3 -16 4 -33 1 -38z m-312 -240 c-10 -9 -11 -8
-5 6 3 10 9 15 12 12 3 -3 0 -11 -7 -18z m-36 -7 c-3 -5 -14 -10 -23 -9 -14 0
-13 2 3 9 27 11 27 11 20 0z m805 -1274 c0 -6 -7 -2 -15 8 -8 11 -15 25 -15
30 0 6 7 2 15 -8 8 -11 15 -25 15 -30z m2927 -1116 c29 -17 32 -22 23 -45 -6
-15 -10 -71 -10 -125 0 -117 6 -111 -136 -140 -246 -51 -1259 -168 -1279 -149
-4 4 89 312 100 329 2 4 46 10 97 14 51 4 194 18 318 31 124 13 259 27 300 30
41 4 156 21 255 40 215 40 287 43 332 15z m-2047 -3215 c0 -1 -7 -8 -15 -15
-13 -10 -15 -9 -15 8 0 15 5 20 15 16 8 -4 15 -7 15 -9z m1260 -55 c0 -5 -2
-10 -4 -10 -3 0 -8 5 -11 10 -3 6 -1 10 4 10 6 0 11 -4 11 -10z"/>
<path d="M5410 8960 c20 -13 33 -13 25 0 -3 6 -14 10 -23 10 -15 0 -15 -2 -2
-10z"/>
<path d="M5281 8814 c0 -11 3 -14 6 -6 3 7 2 16 -1 19 -3 4 -6 -2 -5 -13z"/>
<path d="M5431 7524 c0 -11 3 -14 6 -6 3 7 2 16 -1 19 -3 4 -6 -2 -5 -13z"/>
<path d="M5221 7394 c0 -11 3 -14 6 -6 3 7 2 16 -1 19 -3 4 -6 -2 -5 -13z"/>
<path d="M4170 9275 c7 -9 15 -13 17 -11 7 7 -7 26 -19 26 -6 0 -6 -6 2 -15z"/>
<path d="M5992 8574 c-33 -23 -27 -37 11 -30 17 3 37 7 44 8 15 2 7 15 -16 27
-13 7 -24 6 -39 -5z"/>
<path d="M6053 8493 c5 -27 13 -97 38 -338 6 -60 15 -132 18 -160 l7 -50 12
40 c27 96 42 174 42 230 0 69 -23 178 -39 183 -6 2 -11 22 -11 43 0 54 -15 79
-47 79 -23 0 -25 -3 -20 -27z"/>
<path d="M5857 8263 c-18 -18 -4 -70 28 -106 32 -37 34 -38 44 -18 7 11 9 31
6 43 -10 37 -65 94 -78 81z"/>
<path d="M5810 8241 c0 -5 5 -13 10 -16 6 -3 10 -2 10 4 0 5 -4 13 -10 16 -5
3 -10 2 -10 -4z"/>
<path d="M5986 8080 c-16 -16 -18 -27 -11 -67 4 -26 7 -60 6 -75 -1 -26 27
-47 48 -34 34 21 59 186 29 186 -7 0 -22 2 -33 5 -12 2 -28 -4 -39 -15z"/>
<path d="M5866 7897 c-12 -47 28 -63 65 -26 28 28 19 44 -24 44 -27 0 -37 -5
-41 -18z"/>
<path d="M6082 7866 c-14 -31 -19 -53 -13 -59 15 -15 43 38 39 75 l-3 33 -23
-49z"/>
<path d="M6050 7769 c0 -5 5 -7 10 -4 6 3 10 8 10 11 0 2 -4 4 -10 4 -5 0 -10
-5 -10 -11z"/>
<path d="M4360 6806 c0 -8 5 -18 10 -21 6 -3 10 3 10 14 0 12 -4 21 -10 21 -5
0 -10 -6 -10 -14z"/>
<path d="M4335 6757 c-4 -10 -5 -21 -1 -24 10 -10 18 4 13 24 -4 17 -4 17 -12
0z"/>
<path d="M3422 5703 c-13 -25 -21 -47 -19 -50 3 -2 17 7 32 21 22 20 25 30 18
49 -8 24 -9 23 -31 -20z"/>
<path d="M3301 5506 c-15 -18 -4 -91 16 -108 12 -10 13 -3 7 53 -3 35 -8 65
-9 67 -1 1 -7 -4 -14 -12z"/>
<path d="M4741 5344 c0 -11 3 -14 6 -6 3 7 2 16 -1 19 -3 4 -6 -2 -5 -13z"/>
<path d="M3850 4842 c0 -23 65 -119 90 -132 11 -6 20 -8 20 -5 0 12 -43 91
-67 123 -27 36 -43 41 -43 14z"/>
<path d="M3870 4680 c0 -6 11 -15 24 -20 13 -5 30 -18 38 -29 16 -22 28 -18
28 8 0 9 -14 24 -31 34 -34 19 -59 22 -59 7z"/>
<path d="M3964 4543 c23 -36 46 -44 46 -15 -1 9 -15 24 -34 33 l-34 15 22 -33z"/>
<path d="M4089 2689 c-17 -17 -20 -29 -15 -57 11 -74 75 -94 113 -36 15 24 15
28 -5 70 -25 51 -57 59 -93 23z"/>
<path d="M4110 1402 c-26 -8 -40 -35 -40 -78 0 -50 25 -74 77 -74 28 0 33 4
42 36 8 28 7 43 -4 64 -17 32 -54 59 -75 52z"/>
<path d="M410 10730 c0 -5 5 -10 10 -10 6 0 10 5 10 10 0 6 -4 10 -10 10 -5 0
-10 -4 -10 -10z"/>
<path d="M691 10624 c0 -11 3 -14 6 -6 3 7 2 16 -1 19 -3 4 -6 -2 -5 -13z"/>
<path d="M1103 10543 c9 -2 25 -2 35 0 9 3 1 5 -18 5 -19 0 -27 -2 -17 -5z"/>
<path d="M1340 10540 c0 -5 5 -10 10 -10 6 0 10 5 10 10 0 6 -4 10 -10 10 -5
0 -10 -4 -10 -10z"/>
<path d="M3120 5630 c0 -5 5 -10 10 -10 6 0 10 5 10 10 0 6 -4 10 -10 10 -5 0
-10 -4 -10 -10z"/>
<path d="M5480 339 c0 -5 5 -7 10 -4 6 3 10 8 10 11 0 2 -4 4 -10 4 -5 0 -10
-5 -10 -11z"/>
<path d="M5313 195 c-3 -9 -3 -18 -1 -21 3 -3 8 4 11 16 6 23 -1 27 -10 5z"/>
<path d="M5376 168 c-12 -59 -15 -138 -6 -138 5 0 10 3 11 8 5 66 10 111 14
130 3 12 1 22 -5 22 -5 0 -12 -10 -14 -22z"/>
<path d="M5041 104 c0 -11 3 -14 6 -6 3 7 2 16 -1 19 -3 4 -6 -2 -5 -13z"/>
<path d="M5040 21 c0 -12 5 -21 10 -21 6 0 10 6 10 14 0 8 -4 18 -10 21 -5 3
-10 -3 -10 -14z"/>
<path d="M5076 15 c-4 -11 2 -15 21 -15 21 0 24 2 13 15 -7 8 -16 15 -20 15
-4 0 -10 -7 -14 -15z"/>
</g>
</svg>
